# xmcd
#
# Track frame offsets: 
#        150
#        49233
#        72207
#        87675
#        113162
#        129140
#        147046
#        164553
#        184911
#        212860
#        234107
#        263312
#
# Disc length: 4492 seconds
#
# Revision: 0
# Processed by: cddbd v1.5.2PL0 Copyright (c) Steve Scherf et al.
# Submitted via: ExactAudioCopy v0.99pb4
#
DISCID=a4118a0c
DTITLE=City - Play it Again! Das Beste von CITY (2)
DYEAR=2008
DGENRE=Pop
TTITLE0=Am Fenster
TTITLE1=Glastraum
TTITLE2=Wo du nicht bist
TTITLE3=Vater glaubte
TTITLE4=Flugzeug ohne Flieger
TTITLE5=Die Bäume
TTITLE6=Mir wird kalt dabei
TTITLE7=Amerika
TTITLE8=Ganz Leicht
TTITLE9=Sehn-Sucht
TTITLE10=Sieben Tage lang
TTITLE11=Vater Glaubte (Video)
EXTD=
EXTT0=
EXTT1=
EXTT2=
EXTT3=
EXTT4=
EXTT5=
EXTT6=
EXTT7=
EXTT8=
EXTT9=
EXTT10=
EXTT11=
PLAYORDER=
